<svg id="Layer_1" data-name="Layer 1" xmlns="http://www.w3.org/2000/svg" viewBox="0 0 200 200"><defs><style>.cls-1{fill:#1e9049;}</style></defs><title>logo</title><g id="xkMAFF"><path class="cls-1" d="M138,5.55c27.4,8.8,36,24.26,27.79,48.35-3.28,9.63-10.87,12.66-18.94,15.5C127.3,76.31,107.62,82.92,88,89.72c-12.94,4.49-15.26,14-4.51,22.46,27.56,21.67,55.63,42.69,83.55,63.89,7.58,5.75,16.71,2,25,3.66v14.72H162.56C152,180.87,136.78,172.69,123.77,162c-16.65-13.74-34-26.65-51.15-39.78-8.85-6.77-13-15.36-11.57-26.53,1.35-11,8.73-15.51,18.34-18.66,19.35-6.35,38.47-13.41,57.75-20,9.33-3.18,16.13-7.88,14.65-19.24-1.6-12.26-9.49-18-20.81-18.38-20.77-.64-41.58-.22-62.37-.34-4.38,0-9,1-13.14-1.57-1.89-3.89-1-7.95-.86-11.94Z"/></g><circle class="cls-1" cx="93.82" cy="100.98" r="10.39"/><circle class="cls-1" cx="126.92" cy="39.72" r="14.41"/><circle class="cls-1" cx="176.67" cy="158.86" r="15.33"/><rect class="cls-1" x="8" y="5.55" width="39.25" height="188.91"/></svg>